<?xml version="1.0" encoding="UTF-8"?>
<svg id="Capa_1" data-name="Capa 1" xmlns="http://www.w3.org/2000/svg" viewBox="0 0 375.47 265.9">
  <defs>
    <style>
      .cls-1 {
        fill: #235ca8;
      }

      .cls-1, .cls-2 {
        stroke-width: 0px;
      }

      .cls-2 {
        fill: #ef7a1a;
      }
    </style>
  </defs>
  <g>
    <path class="cls-2" d="m60.78,209.68c12.96,11.2,41.69,32.93,84.57,41.52,35.2,7.05,64.36,2.12,80.43-1.84,15.39-1.89,45.78-7.8,75.84-29.88,20-14.69,32.61-31.2,39.99-42.74,4-6.48,20.18-34.35,13.33-71.01-6.26-33.46-27.69-52.82-34.01-58.14-6.91-5.72-15-11.59-24.36-17.12-26.86-15.87-52.83-22.19-71.55-24.86-12.24-1.85-28.53-3.08-47.49-1.11-16.61,1.72-33.59,6.63-44.35,10.3-.71-1.17-1.2-2.58-1.92-3.75,10.56-3.51,26.73-7.97,42.48-9.77,14.16-1.62,26.73-1.5,37.04-.73,13.99,1.05,30.61,3.39,48.91,8.2,14.53,3.82,27.28,8.46,38.11,13.1,11.82,5.27,48.04,23.27,66.8,64.35,7.85,17.18,10.25,33.17,10.88,44.74-.88,11.71-4.38,36.7-21.68,61.9-13.78,20.08-30.3,31.51-40.06,37.23-13.09,8.31-31.33,18.04-54.39,25.28-27.04,8.49-50.89,10.48-67.87,10.57-12.45.06-27.11-.77-43.36-3.45-19.32-3.18-35.81-8.14-49.03-13.1-9.46-4.4-14.05-8.67-16.55-10.34,3.25,1.58,7.01,3.17,11.26,4.56,2.89.95,5.64,1.68,8.2,2.26.05-.41.1-.82.15-1.23-3.91-2.12-7.97-4.52-12.1-7.24-11.78-7.75-21.19-16.14-28.57-23.86-.23-1.28-.46-2.55-.69-3.83Z"/>
    <path class="cls-1" d="m51.17,105.93c-.24.41-.4.91-.53,1.49-.95,4.18-2.3,8.27-3.99,12.21-.97,2.26-2.14,4.63-3.46,6.78-.69,1.13-4.22,4.77-3.44,6.2.07.12.18.2.29.28.82.6,1.54,1.36,1.98,2.27.93,1.91.06,3.71-.49,5.59-.72,2.48-1.36,4.98-1.94,7.49-1.15,4.94-2.11,9.92-3.17,14.88-.16.77.78,2.68,1.01,3.45.44,1.46.95,2.89,1.54,4.29.14.34.29.68.53.96,1.24,1.45,4.2,1.14,5.73.46,3.77-1.68,4.6-6.32,3.36-9.91-.6-1.75-1.18-2.92-1.01-4.78.14-1.51.27-3.03.43-4.54.33-3.17.74-6.34,1.39-9.46,1.26-6.05,3.45-12.21,7.91-16.66,1.34-1.33,2.85-2.48,4.5-3.41.46-.26.94-.5,1.42-.73,5.74-2.65,12.04-4.06,18.16-1.64,1.4.55,2.74,1.27,4.21,1.6,2.72.6,5.72-.82,6.09-3.73.29-2.3-.42-4.54-2.15-6.13-1.82-1.67-4.38-2.53-6.77-3.01-5.6-1.12-11.62-.76-17,1.19-3.44,1.25-6.36,3.44-9.81,4.65-.45.16.34-2.67.45-2.9.56-1.26,1.17-2.38,1.21-3.81.05-2.26-1.67-4.78-4.15-4.48-1.17.14-1.85.62-2.29,1.4Z"/>
    <path class="cls-1" d="m166.07,88.57c-.16-2.35-2.53-4.32-4.87-4.04-1.67.2-3.1,1.36-4.04,2.75-.94,1.4-1.45,3.02-1.97,4.62-4.97,15.33-11.15,30.27-17.84,44.93-.83,1.82-1.54,3.71-2.28,5.56-.36.89-.87,1.93-2.01,1.85-3.12-.21-.72-10.35-.43-12.37.62-4.35,1.53-8.64,2.54-12.91.89-3.79,2.97-8.45,2.35-12.36-.65-4.17-6.36-6.61-9.1-2.83-1.44,1.98-1.63,4.48-1.97,6.82-.83,5.61-1.7,11.22-2.51,16.84-.44,3.1-1.1,6.16-1.49,9.26-.19,1.54-.32,3.1-.26,4.66.05,1.37.86,3.46.13,4.46-.88,1.22-3.06,2.25-4.3,3.05-2.06,1.34-7.39,5.18-9.93,3.09-.23-.19-.43-.45-.58-.79-.18-2.42-.18-5.34.27-8.6.46-3.36,1.35-6.66,2.62-9.8,1.27-3.14,2.96-5.94.78-9.18-.88-1.31-2.31-2.26-3.87-2.44-1.94-.22-3.82.92-4.85,2.52-.73.96-1.56,2.24-2.29,3.85-.69,1.52-1.06,3.12-1.56,4.71.38-1.23-6.39-2.54-7.18-2.72-7.07-1.61-14.53-.39-20.42,3.94-3.43,2.52-6.02,6.06-7.85,9.87-1.88,3.94-3.64,8.97-2.96,13.37.74,4.73,4.91,8.06,9.62,8.33,5.22.3,10-.02,14.75-2.44,5.03-2.56,9.3-6.38,13.47-10.14,1.46-1.31,2.94,2.31,3.35,3.23.82,1.85,1.79,3.73,3.47,4.95,6.23,4.51,14.41.02,18.26-5.34,1.87,2.61,4.66,5.18,8.16,4.57,2.39-.41,4.25-2.26,5.78-4.14,3.14-3.89,5.55-8.31,7.76-12.8,4.86-9.84,8.91-20.07,12.84-30.32,2.61-6.81,5.17-13.64,7.68-20.49.42-1.14.84-2.33.76-3.54Zm-71.66,52.43c-.5,1.86-2.21,3.48-3.44,4.89-3.27,3.71-7.06,6.96-11.21,9.64-2.49,1.62-6.57,2.99-8.19-.57-.4-.89-.46-1.9-.33-2.86.74-5.49,5.46-9.73,10.22-12.02,4.66-2.25,8.91-2.3,10.97-2.18,1.77.08,2.4,1.53,1.98,3.1Z"/>
    <path class="cls-1" d="m237.09,36.55c-1.62-2.57-5.36-2.34-6.63.38-.91,1.96-1.24,4.47-1.8,6.56-.56,2.09-1.12,4.19-1.67,6.29-1.19,4.55-2.33,9.11-3.43,13.68-4.33,18.01-8.47,36.15-10.71,54.56-.58,4.73-.84,9.38-.94,14.14-.05,2.55-.05,5.1,0,7.64.04,1.62.89,5.28-.56,6.52-3.69,3.17-9.42,3.32-14.06,3.37-8.9.08-18.27-.18-26.91-2.49-3.24-.86-6.16-2.28-7.75-5.39-.14-.27-.27-.56-.24-.87.03-.25.16-.47.32-.67,1.17-1.48,2.93-.95,4.55-.96,4.39-.03,8.75-.03,13.03-1.1,3.88-.97,7.64-2.44,11.17-4.34,6.61-3.57,12.75-8.87,15.99-15.76,1.27-2.69,1.75-5.56.79-8.45-2.59-7.84-13.19-7.9-19.67-5.78-5.66,1.85-10.54,5.42-15.4,8.74-4.89,3.35-9.31,7.75-12.98,12.39-2.26,2.85-4.18,6.02-5.24,9.52-.71,2.35-1.06,4.81-1.03,7.27.04,3.35.85,6.32,3.36,8.69,2.6,2.45,6.18,3.98,9.55,5.05,3.7,1.17,7.57,1.75,11.45,1.82,14.08.25,28.57-5.53,33.67-7.7-.25.11.38,3.01.44,3.28,1.09,4.91,4.66,10.6,9.9,11.78,2.03.46,4.22.23,6.23-.23.84-.19,1.7-.68,1.93-1.5.15-.52.01-1.09-.24-1.57-.55-1.02-1.87-.88-2.85-1.25-1.51-.58-2.75-1.52-3.74-2.8-1.07-1.37-1.51-3.32-1.93-5-4.5-17.78.6-35.78,3.82-53.29,1.72-9.35,3.55-18.69,5.48-28,1.86-8.99,3.32-18.29,5.8-27.12.21-.76.47-1.51.66-2.28.44-1.71.58-3.63-.36-5.12Zm-66.71,92.87c.02-.37.1-.73.23-1.07.12-.33.28-.64.44-.95,2.17-4.11,5.96-7.51,9.65-10.26,4-2.98,9.11-5.25,14.18-4.18.72.15,1.44.39,2.03.84,2.54,1.96-.4,4.57-1.96,5.96-1.85,1.64-3.74,3.22-5.77,4.63-2.37,1.65-4.88,3.1-7.48,4.35-1.89.91-12.14,3.64-11.32.68Z"/>
    <g>
      <path class="cls-2" d="m149.61,198.59c-1.5.52-3.8,1.22-6.7,1.73-4.29.76-6.56,1.12-8.44-.18-.56-.39-2.2-1.69-2.67-5.14.64-1.2,1.28-2.47,1.9-3.82.5-1.07.96-2.12,1.38-3.14.39-.83.16-1.81-.52-2.34-.76-.6-1.92-.5-2.62.27-.23.26-.55.68-.89,1.22-.22.36-.34.61-.52.93-.35.61-.7,1.21-1.07,1.8-1-.45-2.55-1-4.49-1.12-4.84-.29-8.34,2.37-9.9,3.55-1.12.85-7,5.32-6.23,10.16.06.4.31,1.8,1.42,2.91,1.64,1.65,4.05,1.56,5.38,1.51,6.15-.22,11.26-5.9,12.42-7.25.53,1.06,1.76,3.12,4.14,4.25,1.69.8,3.39.87,6.09.5,2.8-.38,7.06-1.29,12.13-3.7.03-.02.57-.46.49-1.09-.07-.57-.62-1.05-1.31-1.05Zm-22.92-4.63c-.04.1-.18.22-.25.31-.32.39-.65.79-.98,1.18-1.31,1.55-2.71,3.04-4.32,4.28-.73.57-1.51,1.08-2.33,1.51-1.26.66-2.71,1.14-4.09.8-.18-.04-.37-.12-.45-.28-.01-.03-.03-.34,0-.46.42-1.6,1.6-2.88,2.73-4.09.87-.93,1.73-1.87,2.74-2.65,1.01-.78,2.17-1.39,3.42-1.58.94-.14,1.94-.03,2.8.39.22.1.42.23.61.37.11.08.17.1.12.23Z"/>
      <path class="cls-2" d="m320.67,198.34c-.07-.57-.62-1.05-1.31-1.05-1.5.52-3.8,1.22-6.7,1.73-4.29.76-6.56,1.12-8.44-.18-.56-.39-2.2-1.69-2.67-5.14.64-1.2,1.28-2.47,1.9-3.82.5-1.07.96-2.12,1.38-3.14.39-.83.16-1.81-.52-2.34-.76-.6-1.92-.5-2.62.27-.23.26-.55.68-.89,1.22-.22.36-.34.61-.52.93-.35.61-.7,1.21-1.07,1.8-1-.45-2.55-1-4.49-1.12-4.84-.29-8.34,2.37-9.9,3.55-1.12.85-7,5.32-6.23,10.16.06.4.31,1.8,1.42,2.91,1.64,1.65,4.05,1.56,5.38,1.51,6.15-.22,11.26-5.9,12.42-7.25.53,1.06,1.76,3.12,4.14,4.25,1.69.8,3.39.87,6.09.5,2.8-.38,7.06-1.29,12.13-3.7.03-.02.57-.46.49-1.09Zm-24.23-5.68c-.04.1-.18.22-.25.31-.32.39-.65.79-.98,1.18-1.31,1.55-2.71,3.04-4.32,4.28-.73.57-1.51,1.08-2.33,1.51-1.26.66-2.71,1.14-4.09.8-.18-.04-.37-.12-.45-.28-.01-.03-.03-.34,0-.46.42-1.6,1.6-2.88,2.73-4.09.87-.93,1.73-1.87,2.74-2.65,1.01-.78,2.17-1.39,3.42-1.58.94-.14,1.94-.03,2.8.39.22.1.42.23.61.37.11.08.17.1.12.23Z"/>
      <path class="cls-2" d="m195.79,217.56c-.98.84-2.11,1.62-3.24,2.33-2.24,1.43-4.62,2.63-7.04,3.73-1.73.8-4.18,1.94-5.37-.17-.28-.48-.46-1.17-.53-1.77-.3-2.94.31-5.75,1.25-8.71,1.55-4.42,3.47-10.94,4.88-15.49,0,0,4.62-15.57,4.62-15.57.84-2.87-3.01-4.73-4.74-2.28-1.56,2.26-4.51,6.51-7.25,10.44.99-2.86,1.98-5.72,2.97-8.57,1.13-3.43-3.49-5.67-5.49-2.65,0,0-4.17,6.59-7,11.06,1.08-2.86,2.08-5.52,2.89-7.71,1.15-3.31-3.56-5.15-4.97-1.96-1.71,4.12-5.06,12.47-6.69,16.62-1.77,4.6-3.63,9.13-5.16,13.84-.12.43-.29.98-.31,1.48-.17,2.81,2.98,4.27,5.01,2.6.33-.27.66-.65.92-.99,2.36-3.31,4.89-7.11,7.45-11.05-.19.65-.38,1.31-.56,1.96-.16.65-.31,1.42-.16,2.13.39,2.1,2.87,3.09,4.6,1.9.3-.2.63-.53.84-.76,1.89-2.33,3.53-4.85,5.2-7.24.8-1.16,1.97-2.9,3.29-4.86-1.01,3.91-1.96,7.6-2.6,10.13-1.38,5.43-3.51,11.03-2.13,16.8.9,3.87,4.69,5.83,8.27,3.98.63-.3,1.27-.68,1.87-1,3.61-2.08,7.04-4.38,9.92-7.46.44-.48-.25-1.17-.73-.75Z"/>
      <path class="cls-2" d="m192.4,200.53c1.72,1.37,4.42,1.52,7.06.4,3.81-1.38,7.11-3.65,10.31-5.98,3.47-2.48,8.36-7.33,4.67-11.67-4.93-5.21-13.17.55-17.37,3.93-3.89,3.18-7.98,6.84-9.64,11.85-.89,2.51-1.05,5.66.91,7.78,4.2,4.48,10.89,2.13,15.82.62,3.59-1.25,7.07-2.68,10.39-4.59l-.5-1.54c-3.78.39-7.44,1.17-11.05,1.91-2.77.41-9.25,2.72-11.01.12-.19-.45-.1-1.03.02-1.58.1-.42.24-.84.4-1.24Zm8.04-9.1c2.61-2.02,5.38-4.02,8.54-4.71.68-.09.99-.08,1.25.11-1.14,2.14-3.7,3.79-5.89,5.45-2.16,1.56-4.26,2.94-6.66,3.89-.98.37-1.58.59-2.24.49-.03,0,.06.07.04.09-.11-.13-.15-.44-.15-.74,1.46-1.61,3.24-3.11,5.1-4.58Z"/>
      <path class="cls-2" d="m274.02,208.97c-.75-.93-1.4-1.73-1.52-2.5-.17-1.11.1-2.42.39-3.81l.05-.24c.1-.5.19-1,.29-1.5,3.67-3.05,7.58-5.92,10.76-9.51.25-.33,1.66-1.92,1.08-2.31-.15-.09-.34-.03-.43.12-.3.54-.83,1.03-1.36,1.47-2.83,2.22-6.01,3.99-9.18,5.73.18-.92.37-1.84.57-2.74,1.23-5.41,3.3-10.86,5.29-16.13l.32-.85c2.14-5.66,4.49-11.29,6.71-16.56,1.78-4.23,3.28-7.72,4.73-10.99.6-1.35,0-2.93-1.36-3.53-1.35-.6-2.93,0-3.53,1.36-1.47,3.3-2.98,6.83-4.78,11.09-2.24,5.32-4.6,10.99-6.78,16.74l-.32.84c-1.48,3.89-2.98,7.88-4.2,11.95-5.17-.86-10.21.55-13.53,3.87-2,2-4.15,5.74-4.13,9.2.01,1.95.7,3.66,2,4.93,1.56,1.52,3.52,2.03,5.46,2.03,2.62,0,5.18-.92,6.57-1.46.01.37.04.74.1,1.12.34,2.19,1.61,3.77,2.64,5.04l.25.31c.53.66,1.3,1,2.09,1,.59,0,1.17-.19,1.67-.59,1.15-.92,1.34-2.6.42-3.76l-.27-.33Zm-15.18-7.18c-.18-.18-.39-.47-.39-1.14,0-1.68,1.32-4.15,2.57-5.4,2.29-2.29,5.55-2.79,8.38-2.44-.37,1.67-.69,3.36-1,5-.13.71-.28,1.43-.42,2.14-.85.42-1.66.79-2.44,1.1-4.61,1.83-6.18,1.25-6.7.74Z"/>
      <path class="cls-2" d="m254.57,183.91c.54-1.2,0-2.6-1.19-3.14s-2.6,0-3.14,1.19c-1.58,3.52-2.85,6.53-3.88,9.14-2.82,2.13-5.96,3.86-9.07,5.57.19-1,.4-2,.62-2.97,1.23-5.41,3.3-10.86,5.29-16.13l.32-.85c2.14-5.66,4.49-11.29,6.71-16.56,1.78-4.23,3.28-7.72,4.73-10.99.6-1.35,0-2.93-1.36-3.53-1.35-.6-2.93,0-3.53,1.36-1.47,3.3-2.98,6.82-4.78,11.09-2.24,5.32-4.6,10.99-6.78,16.74l-.32.84c-1.48,3.89-2.98,7.88-4.2,11.95-5.17-.86-10.21.55-13.53,3.87-2,2-4.15,5.74-4.13,9.2.01,1.95.7,3.66,2,4.93,1.56,1.52,3.52,2.03,5.46,2.03,2.62,0,5.18-.92,6.57-1.46.01.37.04.74.1,1.12.34,2.19,1.61,3.77,2.64,5.04l.25.32c.53.66,1.3,1,2.09,1,.59,0,1.17-.19,1.67-.59,1.15-.92,1.34-2.6.42-3.76l-.27-.33c-.75-.93-1.4-1.73-1.52-2.49-.17-1.11.1-2.42.39-3.81l.05-.24c.08-.37.14-.74.22-1.11.05-.04.09-.08.13-.12,2.94-2.46,6.04-4.79,8.82-7.45-4.09,11.07-2.88,13.03-2.41,13.79.54.88,1.45,1.41,2.47,1.45.03,0,.07,0,.1,0,1.27,0,2.32-1,2.37-2.28.03-.74-.28-1.41-.78-1.86.16-2.95,3.82-12.82,7.47-20.93Zm-32.5,17.88c-.18-.18-.39-.47-.39-1.14,0-1.68,1.32-4.15,2.57-5.4,2.29-2.29,5.55-2.79,8.38-2.44-.37,1.67-.69,3.36-1,5-.13.71-.28,1.43-.42,2.14-.85.42-1.66.79-2.44,1.1-4.61,1.83-6.18,1.25-6.7.74Zm14.39-.54h0s.01-.02.01-.02c0,0,0,0,0,0,0,0-.01.02-.02.02Z"/>
    </g>
    <ellipse class="cls-2" cx="257.89" cy="170.74" rx="4.97" ry="3.64" transform="translate(-18.93 308.71) rotate(-60)"/>
    <path class="cls-1" d="m7.21,199.42c.32.4.73.68,1.21.56-.69-8.56-1.72-17.16-1.36-25.76s1.89-16.78,3.96-25.07c4.8-17,13-29.81,18.04-37.69,3.85-6.02,9.35-14.51,18.5-23.9,8.69-8.92,28.05-22.95,32.03-25.8.4-.29.96-.17,1.2.25.96,1.64,1.87,3.87,2.73,6.7,1.05,3.43,1.24,6.44,1.21,8.51,0,.04,0,.07,0,.11.28,2.26.68,4.63,1.29,6.48.62,1.87,1.42,3.14,2.55,3.4,2.87.65,6.58-6.22,7.12-7.24,2.41-4.47,3.06-8.47,3.22-9.54,1.65-10.81.89-23.33.5-28.49-.02-.29.11-.57.35-.74,10.95-7.7,23.73-18.41,34.7-26.15.35-.25.46-.72.25-1.09-1.08-1.88-2.98-4.5-6.15-6.5-8.48-5.34-18.19-1.26-19.23-.8-3.3,1.3-7.2,3.14-11.34,5.75-4.16,2.62-7.53,5.37-10.17,7.83-.31.29-.79.31-1.11.03-3.32-2.85-12.56-9.25-25.25-12.21-.04,0-.09-.01-.13-.02-.99-.09-9.86-1.58-11.83-1.38-.97.1-2.29.95-3.64,4.48-.16.41.03.87.42,1.06,4.89,2.38,11.28,6.23,17.47,12.39,3.26,3.24,5.81,6.47,7.8,9.37.23.34.18.79-.12,1.07-20.65,19.67-38.97,42.23-52.75,67.25C8.33,121.12.04,141.55,0,163.36c-.02,11.98,2.21,23.96,6.66,35.09.13.33.32.69.55.98Z"/>
  </g>
  <circle class="cls-1" cx="9.62" cy="203.52" r="1.51"/>
</svg>